<?xml version="1.0" standalone="no"?>
<!DOCTYPE svg PUBLIC "-//W3C//DTD SVG 20010904//EN"
 "http://www.w3.org/TR/2001/REC-SVG-20010904/DTD/svg10.dtd">
<svg version="1.0" xmlns="http://www.w3.org/2000/svg"
 width="180.000000pt" height="210.000000pt" viewBox="0 0 180.000000 210.000000"
 preserveAspectRatio="xMidYMid meet">
<metadata>
Created by potrace 1.16, written by Peter Selinger 2001-2019
</metadata>
<g transform="translate(0.000000,210.000000) scale(0.100000,-0.100000)"
fill="#609bfb" stroke="none">
<path d="M388 1813 c-15 -4 -18 -16 -18 -64 l0 -59 375 0 c403 0 418 -2 473
-53 57 -53 78 -149 48 -220 -17 -43 -76 -93 -123 -106 -22 -6 -141 -11 -275
-11 l-238 0 0 -64 0 -64 243 -4 242 -3 65 -31 c83 -39 155 -111 194 -194 28
-59 31 -74 31 -165 0 -90 -3 -106 -28 -158 -55 -110 -165 -194 -286 -217 -29
-5 -204 -10 -387 -10 l-334 0 0 -65 0 -65 363 0 c390 0 426 4 525 54 236 120
346 407 252 659 -32 86 -132 203 -210 247 -11 6 -7 16 23 49 139 154 115 389
-53 495 -84 54 -105 56 -499 55 -201 -1 -374 -3 -383 -6z"/>
<path d="M370 1040 l0 -520 348 0 c208 0 362 4 384 10 103 29 181 138 181 254
0 102 -48 180 -141 227 -45 23 -57 24 -279 27 l-233 3 0 -65 0 -66 213 0 c193
0 215 -2 244 -20 63 -38 84 -131 41 -185 -40 -51 -64 -55 -353 -55 l-265 0 0
455 0 455 -70 0 -70 0 0 -520z"/>
<path d="M630 1495 l0 -65 243 0 c230 0 245 1 262 20 24 27 22 70 -5 92 -20
16 -45 18 -261 18 l-239 0 0 -65z"/>
</g>
</svg>
